<svg width="408" height="303" viewBox="0 0 408 303" fill="none" xmlns="http://www.w3.org/2000/svg">
<path d="M159.637 45.8138H152.243L151.404 54.1519H159.637V45.8138Z" fill="#ED9DA0"/>
<path d="M157.695 32.7513C153.39 32.4494 149.654 35.6937 149.352 39.9976C149.05 44.3016 152.296 48.0353 156.602 48.3372C160.907 48.6391 164.642 45.3948 164.944 41.0908C165.246 36.7869 162.001 33.0531 157.695 32.7513Z" fill="#ED9DA0"/>
<path d="M154.489 28.8861C154.457 28.806 154.403 28.7371 154.332 28.6881C154.262 28.6392 154.178 28.6125 154.092 28.6114C157.676 28.6481 161.405 29.3286 164.254 31.5033C164.908 32.0753 165.609 32.5917 166.349 33.0471C166.385 33.0663 166.415 33.0946 166.437 33.1291C166.459 33.1636 166.472 33.2032 166.474 33.2439C166.476 33.2847 166.467 33.3254 166.449 33.3619C166.43 33.3984 166.403 33.4295 166.369 33.4522L166.278 33.5138C166.241 33.538 166.212 33.5719 166.194 33.6116C166.175 33.6513 166.168 33.6953 166.173 33.7388C166.178 33.7823 166.195 33.8236 166.222 33.8581C166.249 33.8926 166.285 33.9189 166.326 33.9343C166.368 33.9505 166.405 33.9784 166.432 34.0149C166.459 34.0513 166.475 34.0946 166.478 34.1398C166.481 34.1849 166.471 34.23 166.45 34.2698C166.428 34.3096 166.395 34.3423 166.356 34.3642L165.664 34.746C165.629 34.7651 165.6 34.7925 165.579 34.8259C165.557 34.8592 165.545 34.8973 165.542 34.9368C165.539 34.9763 165.546 35.0158 165.563 35.0518C165.579 35.0878 165.605 35.119 165.636 35.1428C165.69 35.1814 165.747 35.2155 165.806 35.2446C165.843 35.2616 165.875 35.2878 165.899 35.3207C165.923 35.3537 165.938 35.3922 165.943 35.4327C165.947 35.4731 165.942 35.5141 165.926 35.5516C165.91 35.5892 165.885 35.6221 165.853 35.6471C165.548 35.8823 165.305 36.1885 165.146 36.539C164.914 37.1113 164.771 37.7157 164.721 38.3313C164.555 37.4298 163.625 36.8407 162.715 36.7233C161.798 36.6803 160.88 36.7733 159.99 36.9993C158.02 37.3339 156.004 37.2702 154.06 36.812C154.633 38.1985 153.958 39.7571 153.294 41.1028L151.514 40.1878C149.094 38.587 150.429 44.7276 151.312 45.6191C149.338 46.1487 144.823 38.3964 146.639 35.7035C147.584 34.3023 147.118 32.3775 148.872 31.1066C149.746 30.3092 151.338 30.8027 152.215 30.1507C152.561 29.8943 152.117 29.1118 152.576 28.9799C153.21 28.902 153.85 28.8706 154.489 28.8861Z" fill="#2F2E41"/>
<path d="M161.642 49.9595L163.374 52.7735L174.248 56.7332L173.356 83.7407L172.385 86.5989L173.183 88.9661L171.789 90.8529C173.412 92.1257 173.706 93.5561 172.981 95.1081L168.203 96.5604C168.203 96.5604 141.372 100.853 143.354 96.5127C145.519 91.7701 145.206 78.2332 139.212 71.4084C134.123 65.6135 137.143 57.4201 137.143 57.4201L147.963 53.3434L151.86 50.6454L161.642 49.9595Z" fill="#3F3D56"/>
<path d="M112.573 73.8136C112.871 74.2404 113.26 74.5967 113.71 74.8573C114.161 75.1179 114.664 75.2766 115.183 75.3222C115.701 75.3678 116.224 75.2992 116.713 75.1211C117.203 74.9431 117.647 74.66 118.015 74.2918L129.416 79.8057L128.549 73.2848L117.856 69.0482C117.196 68.4712 116.346 68.1564 115.469 68.1633C114.592 68.1703 113.748 68.4986 113.097 69.086C112.446 69.6734 112.033 70.4791 111.937 71.3505C111.84 72.2219 112.066 73.0985 112.573 73.8141L112.573 73.8136Z" fill="#ED9DA0"/>
<path d="M146.493 54.2001C145.507 60.6489 142.879 75.7291 139.373 79.0901C139.153 79.3294 138.882 79.5163 138.579 79.637C125.719 83.7408 120.956 75.9071 120.956 75.9071C120.956 75.9071 124.342 73.9534 124.197 70.6081L131.423 72.3053L136.614 58.0064L137.462 57.0975L137.466 57.092L146.493 54.2001Z" fill="#3F3D56"/>
<path d="M173.152 188.091C176.072 188.465 179.102 188.703 181.899 187.796C182.339 187.66 182.824 187.356 182.78 186.916C182.748 186.756 182.68 186.605 182.581 186.475C181.527 184.895 180.642 183.208 179.939 181.443C179.911 181.351 179.854 181.271 179.776 181.214C179.685 181.181 179.585 181.181 179.494 181.214C178.204 181.553 177.089 182.387 175.807 182.743C175.154 182.923 174.472 182.973 173.799 182.893C173.218 182.827 172.423 182.347 171.896 182.409C172.196 184.332 172.927 186.128 173.152 188.091Z" fill="#FFA83F"/>
<path d="M228.377 183.216C230.302 181.895 232.297 180.508 233.433 178.47C233.514 178.349 233.561 178.208 233.57 178.062C233.55 177.918 233.494 177.782 233.407 177.666C232.324 175.945 230.931 174.442 229.297 173.232C228.445 173.834 227.675 174.544 227.007 175.345C226.523 175.855 225.184 176.666 225.172 177.446C225.172 177.886 225.682 178.397 225.921 178.767C226.243 179.242 226.546 179.726 226.839 180.219C227.003 180.462 228.531 183.121 228.377 183.216Z" fill="#FFA83F"/>
<path d="M184.598 193.987C184.633 194.44 184.508 194.892 184.246 195.263C184.04 195.47 183.786 195.621 183.506 195.704C179.424 197.165 174.698 195.343 170.624 196.783C169.787 197.078 168.993 197.505 168.153 197.786C167.151 198.088 166.116 198.271 165.07 198.332C163.63 198.469 162.181 198.557 160.737 198.596C159.639 198.674 158.536 198.577 157.469 198.31C156.935 198.173 156.436 197.925 156.004 197.583C155.573 197.24 155.218 196.811 154.963 196.322C154.742 195.885 154.697 195.379 154.84 194.909C154.904 194.748 154.995 194.599 155.108 194.469C155.385 194.159 155.709 193.896 156.068 193.69L157.57 192.721C158.275 192.223 159.04 191.818 159.847 191.515C160.442 191.321 161.071 191.238 161.675 191.075C163.785 190.459 165.397 188.785 166.894 187.179L168.938 184.999C169.129 184.76 169.371 184.566 169.647 184.432C169.93 184.337 170.231 184.309 170.528 184.348C172.513 184.49 174.43 185.132 176.099 186.215C176.526 186.535 176.988 186.807 177.476 187.025C178.674 187.492 180.211 187.14 181.316 186.55C181.84 186.268 181.724 186.109 181.946 185.607C182.168 185.105 182.703 184.784 183.169 185.242C183.31 185.4 183.41 185.591 183.46 185.797C183.9 187.25 183.733 188.813 183.733 190.336C183.72 190.574 183.75 190.813 183.821 191.04C183.934 191.27 184.068 191.488 184.222 191.692C184.253 191.746 184.281 191.802 184.306 191.859C184.575 192.534 184.677 193.264 184.601 193.986L184.598 193.987Z" fill="#514E7F"/>
<path d="M184.598 193.986C184.633 194.44 184.508 194.891 184.246 195.263C184.041 195.47 183.786 195.621 183.506 195.703C179.424 197.165 174.698 195.342 170.624 196.782C169.787 197.077 168.993 197.504 168.153 197.786C167.151 198.087 166.116 198.271 165.071 198.332C163.63 198.469 162.181 198.557 160.737 198.596C159.639 198.673 158.536 198.577 157.469 198.31C156.935 198.173 156.436 197.925 156.004 197.582C155.573 197.24 155.218 196.81 154.963 196.322C154.741 195.885 154.695 195.379 154.836 194.91C154.9 194.749 154.991 194.6 155.105 194.469C155.343 194.967 155.513 195.627 155.666 195.865C155.868 196.217 156.143 196.522 156.473 196.759C156.803 196.996 157.179 197.16 157.577 197.241C158.173 197.277 158.771 197.201 159.339 197.016C163.038 196.099 166.971 196.087 170.525 194.7C171.745 194.22 172.908 193.582 174.189 193.292C175.471 193.001 176.832 193.08 178.153 192.97C180.241 192.803 182.262 192.173 184.319 191.843C184.585 192.523 184.68 193.258 184.596 193.983L184.598 193.986Z" fill="#464353"/>
<path d="M237.727 182.949C237.533 184.499 236.551 185.833 235.472 186.964C234.393 188.096 233.173 189.113 232.314 190.416C231.257 192.032 230.781 194.035 229.408 195.4C228.881 195.896 228.288 196.318 227.646 196.655C226.928 197.078 226.168 197.428 225.378 197.698C223.326 198.354 221.115 198.204 218.97 198.045C218.274 198.039 217.585 197.906 216.936 197.653C216.64 197.504 216.357 197.33 216.09 197.134C215.552 196.803 215.099 196.351 214.768 195.813C214.606 195.521 214.56 195.178 214.64 194.854C214.763 194.496 214.973 194.175 215.252 193.92C215.735 193.419 216.253 192.952 216.802 192.525C217.557 192.039 218.237 191.445 218.821 190.764C219.179 190.225 219.443 189.63 219.601 189.002C219.913 187.904 220.103 186.774 220.169 185.634C220.166 184.877 220.245 184.121 220.402 183.38C220.728 182.218 221.592 181.179 221.494 179.977C221.455 179.805 221.47 179.625 221.538 179.462C221.641 179.334 221.784 179.246 221.944 179.211C222.617 178.943 223.326 178.778 224.049 178.722C224.411 178.697 224.774 178.752 225.112 178.885C225.451 179.017 225.755 179.222 226.004 179.487C226.304 179.847 226.502 180.367 226.942 180.506C227.161 180.565 227.39 180.575 227.612 180.532C228.695 180.422 229.84 180.286 230.695 179.586C231.089 179.232 231.407 178.8 231.626 178.318C231.846 177.836 231.964 177.313 231.972 176.783C231.972 176.382 231.791 175.964 232.412 175.902C232.879 175.841 233.249 176.343 233.487 176.651C234.346 177.8 235.227 179.002 235.548 180.402C235.673 180.353 235.806 180.328 235.94 180.327C236.215 180.325 236.486 180.389 236.731 180.513C236.976 180.638 237.186 180.821 237.345 181.045C237.696 181.613 237.832 182.287 237.728 182.947L237.727 182.949Z" fill="#514E7F"/>
<path d="M237.727 182.95C237.533 184.499 236.551 185.833 235.472 186.965C234.393 188.097 233.173 189.114 232.314 190.417C231.257 192.032 230.782 194.035 229.408 195.4C228.881 195.897 228.288 196.319 227.647 196.655C226.928 197.079 226.168 197.429 225.379 197.698C223.326 198.354 221.115 198.205 218.971 198.046C218.274 198.039 217.585 197.906 216.936 197.654C216.64 197.504 216.357 197.33 216.09 197.135C215.552 196.804 215.1 196.351 214.769 195.814C215.181 195.615 215.632 195.507 216.09 195.497C217.041 195.548 217.737 196.448 218.649 196.725C219.948 197.117 221.243 196.201 222.56 195.889C223.419 195.685 224.322 195.739 225.172 195.448C225.88 195.174 226.534 194.778 227.105 194.276C227.887 193.718 228.583 193.049 229.171 192.289C229.659 191.528 230.065 190.718 230.382 189.872C231.077 188.25 231.895 186.684 232.829 185.187C232.967 184.95 233.135 184.731 233.327 184.535C233.541 184.359 233.766 184.196 234.001 184.046C234.882 183.384 235.247 182.285 235.555 181.211C235.639 180.885 235.755 180.568 235.903 180.265C236.178 180.263 236.449 180.326 236.694 180.451C236.938 180.576 237.149 180.759 237.308 180.983C237.687 181.564 237.836 182.265 237.727 182.95Z" fill="#464353"/>
<path d="M165.929 112.49C166.51 114.691 165.669 117.007 164.982 119.187C163.947 122.469 163.242 125.846 162.877 129.269C162.832 130.139 162.657 130.998 162.357 131.817C162.031 132.552 161.476 133.173 161.097 133.873C160.058 135.713 160.084 137.958 160.309 140.063C160.459 141.449 160.683 142.832 160.961 144.197C161.3 145.865 161.719 147.611 161.23 149.238C162.049 149.057 162.607 150.118 162.551 150.95C162.496 151.783 162.23 152.712 162.631 153.429C163.644 153.799 163.651 155.191 163.622 156.269C163.639 158.139 163.875 160.001 164.327 161.816C165.859 169.183 167.486 176.53 169.207 183.856C172.928 185.009 177.275 186.211 180.825 184.613C181.168 184.498 181.48 184.304 181.735 184.048C181.991 183.791 182.183 183.479 182.296 183.135C182.335 182.751 182.287 182.363 182.155 181.999L180.473 175.88C180.065 174.402 179.654 172.873 179.869 171.354C180.032 170.222 180.525 169.003 179.971 168.003C179.782 167.66 179.482 167.392 179.262 167.065C178.381 165.776 178.843 164.049 178.914 162.487C178.942 162.136 178.918 161.783 178.844 161.439C178.723 161.037 178.555 160.651 178.342 160.29C176.952 157.591 176.284 154.579 176.404 151.546C176.457 151.159 176.405 150.765 176.252 150.406C176.145 150.258 176.049 150.102 175.965 149.939C175.899 149.657 175.932 149.36 176.057 149.098C175.552 148.716 175.097 148.272 174.701 147.777C174.945 147.626 175.152 147.42 175.305 147.177C175.458 146.934 175.554 146.659 175.586 146.373C175.617 146.087 175.583 145.798 175.486 145.527C175.389 145.256 175.232 145.011 175.026 144.81C175.206 144.774 175.372 144.688 175.506 144.564C175.64 144.439 175.737 144.279 175.786 144.103C175.834 143.926 175.833 143.74 175.782 143.564C175.732 143.388 175.633 143.229 175.497 143.106C175.282 142.956 174.995 142.891 174.841 142.666C174.604 142.34 174.797 141.887 174.991 141.539L176.017 139.685C176.782 138.309 176.956 136.603 177.779 135.282C178.893 133.317 179.802 131.243 180.492 129.092L183.456 120.917L185.451 122.65C186.115 123.157 186.672 123.792 187.089 124.516C187.373 125.232 187.552 125.986 187.622 126.753C188.353 131.19 191.146 135.038 192.181 139.41C192.409 140.383 192.564 141.404 193.123 142.236C193.323 142.492 193.503 142.763 193.661 143.047C193.806 143.479 193.882 143.933 193.885 144.389C193.978 145.284 194.262 146.148 194.717 146.922C195.173 147.697 195.791 148.365 196.528 148.88C197.51 149.554 198.73 150.016 199.263 151.081C199.37 151.411 199.518 151.726 199.704 152.019C200.179 152.591 201.206 152.658 201.408 153.375C201.523 153.776 201.311 154.256 201.535 154.608C201.663 154.771 201.832 154.897 202.024 154.973L204.892 156.404C208.098 158.007 209.735 161.688 212.102 164.369C212.918 165.243 213.642 166.199 214.26 167.223C215.279 169.05 215.753 171.344 217.479 172.506C217.943 172.746 218.365 173.058 218.729 173.431C219.271 174.144 219.073 175.144 219.121 176.042C219.17 176.94 219.857 178.009 220.711 177.737C220.412 178.824 220.412 179.973 220.711 181.06C224.461 180.867 228.036 179.418 230.863 176.948C231.7 176.217 232.506 175.284 232.515 174.175C232.528 173.983 232.485 173.792 232.392 173.624C232.222 173.408 231.999 173.239 231.744 173.136C229.062 171.683 228.256 168.315 226.901 165.581C225.716 163.168 223.963 161.09 222.496 158.849C219.308 154.029 217.132 148.195 212.31 145.012C211.248 144.311 210.015 143.691 209.482 142.533C209.187 141.886 209.152 141.146 208.918 140.477C208.685 139.808 208.125 139.156 207.412 139.156C207.809 138.188 207.729 137.007 207.756 135.96C207.783 135.495 207.729 135.03 207.597 134.584C207.414 134.103 207.176 133.645 206.888 133.219C205.63 131.089 205.001 128.647 205.074 126.175C205.109 124.901 205.334 123.59 204.95 122.375C204.756 121.764 204.417 121.203 204.185 120.614C203.834 119.545 203.648 118.427 203.635 117.301L203.371 113.072C203.331 111.662 203.148 110.261 202.825 108.889C201.944 105.604 201.063 91.8464 198.046 90.2966C195.029 88.7468 189.846 99.3349 186.45 99.5418C184.947 99.6042 183.463 99.8906 182.045 100.391C179.786 101.237 177.892 102.813 176.047 104.354L169.801 109.597C168.479 110.685 167.386 111.724 165.929 112.49Z" fill="#464353"/>
<path d="M264.452 123.968V118.501C264.451 114.476 262.851 110.616 260.003 107.77C257.155 104.924 253.293 103.325 249.267 103.325H33.2414C29.2146 103.325 25.3526 104.924 22.5049 107.77C19.6571 110.616 18.0567 114.476 18.0557 118.501V128.583L264.452 123.968Z" fill="#33323D"/>
<path d="M93.3378 96.9136C93.3378 96.9136 92.7214 135.154 99.5037 147.737C106.286 160.32 109.193 215.06 109.193 215.06C109.193 215.06 180.295 222.412 229.843 206.255C279.391 190.097 384.822 183.486 384.822 183.486L367.055 63.7845C367.055 63.7845 279.282 58.1582 229.35 81.9626C179.419 105.767 93.3378 96.9136 93.3378 96.9136Z" fill="#8DD070"/>
<path d="M93.3378 96.9136C93.3378 96.9136 92.7214 135.154 99.5037 147.737C106.286 160.32 109.193 215.06 109.193 215.06C109.193 215.06 180.295 222.412 229.843 206.255C279.391 190.097 384.822 183.486 384.822 183.486L367.055 63.7845C367.055 63.7845 279.282 58.1582 229.35 81.9626C179.419 105.767 93.3378 96.9136 93.3378 96.9136Z" fill="#D6D6E3"/>
<path d="M109.074 110.883C109.074 110.883 106.85 142.437 112.431 152.52C118.011 162.604 118.271 207.611 118.271 207.611C118.271 207.611 182.261 210.579 227.778 195.09C273.296 179.601 368.949 169.558 368.949 169.558L358.078 71.6614C358.078 71.6614 278.933 70.846 232.742 92.6486C186.55 114.451 109.074 110.883 109.074 110.883Z" fill="#E6E6E6"/>
<path opacity="0.1" d="M232.037 177.165C241.142 176.031 246.551 159.288 244.119 139.768C241.687 120.248 232.334 105.343 223.229 106.477C214.125 107.61 208.716 124.353 211.148 143.873C213.58 163.393 222.933 178.298 232.037 177.165Z" fill="black"/>
<path d="M67.3086 115.493C67.3086 115.493 78.4559 152.079 88.7616 161.976C99.0672 171.873 118.64 223.081 118.64 223.081C118.64 223.081 188.575 208.266 230.773 177.676C272.97 147.087 371.295 108.468 371.295 108.468L317.647 0C317.647 0 232.381 21.5727 192.17 59.5449C151.96 97.517 67.3086 115.493 67.3086 115.493Z" fill="#8DD070"/>
<path d="M67.3086 115.493C67.3086 115.493 78.4559 152.079 88.7616 161.976C99.0672 171.873 118.64 223.081 118.64 223.081C118.64 223.081 188.575 208.266 230.773 177.676C272.97 147.087 371.295 108.468 371.295 108.468L317.647 0C317.647 0 232.381 21.5727 192.17 59.5449C151.96 97.517 67.3086 115.493 67.3086 115.493Z" fill="#D6D6E3"/>
<path d="M86.5596 123.963C86.5596 123.963 94.1305 154.68 102.538 162.561C110.946 170.441 125 213.191 125 213.191C125 213.191 186.81 196.382 225.378 167.676C263.947 138.971 351.908 100.11 351.908 100.11L311.517 10.2446C311.517 10.2446 235.944 33.7412 198.67 68.6627C161.397 103.584 86.5596 123.963 86.5596 123.963Z" fill="#E6E6E6"/>
<path d="M223.951 149.328C232.268 145.456 232.277 127.862 223.97 110.03C215.663 92.1975 202.186 80.8803 193.868 84.7519C185.551 88.6236 185.543 106.218 193.85 124.05C202.157 141.882 215.634 153.2 223.951 149.328Z" fill="#D6D6E3"/>
<path d="M270.285 131.267V283.157C270.284 286.64 268.898 289.981 266.434 292.444C263.969 294.906 260.627 296.29 257.142 296.29H31.202C27.7184 296.289 24.3778 294.905 21.9149 292.442C19.4519 289.979 18.0684 286.639 18.0684 283.157V115.951C24.5432 118.35 24.5432 118.35 31.202 118.152H257.141C260.623 118.152 263.963 119.533 266.427 121.992C268.891 124.451 270.279 127.787 270.285 131.267Z" fill="#FFA83F"/>
<path d="M270.284 186.128V234.71H223.158C216.714 234.71 210.534 232.151 205.977 227.597C201.42 223.042 198.86 216.864 198.86 210.422C198.86 203.981 201.42 197.803 205.977 193.248C210.534 188.693 216.714 186.134 223.158 186.134L270.284 186.128Z" fill="#33323D"/>
<path d="M226.061 219.896C231.293 219.896 235.534 215.656 235.534 210.426C235.534 205.196 231.293 200.956 226.061 200.956C220.828 200.956 216.587 205.196 216.587 210.426C216.587 215.656 220.828 219.896 226.061 219.896Z" fill="#FFA83F"/>
<path d="M178.482 110.88C178.831 110.494 179.091 110.036 179.244 109.538C179.397 109.04 179.439 108.515 179.367 107.999C179.295 107.484 179.111 106.99 178.828 106.553C178.544 106.116 178.168 105.747 177.727 105.471L180.546 93.1292L174.384 95.4369L172.651 106.803C172.237 107.576 172.121 108.473 172.325 109.325C172.528 110.178 173.037 110.926 173.756 111.429C174.474 111.931 175.352 112.153 176.222 112.052C177.093 111.951 177.897 111.534 178.481 110.881L178.482 110.88Z" fill="#ED9DA0"/>
<path d="M171.274 56.2662L174.229 56.7383C174.229 56.7383 187.885 79.267 185.303 83.9229C182.72 88.5788 180.207 103.571 180.207 103.571C180.207 103.571 174.888 102.896 172.696 100.365L175.139 82.622L170.321 68.1909L171.274 56.2662Z" fill="#3F3D56"/>
<path d="M406.706 297.378H1.2919C0.578142 297.378 0 297.135 0 296.834C0 296.533 0.576613 296.29 1.28986 296.29H406.704C407.418 296.29 407.996 296.533 407.996 296.834C407.996 297.135 407.421 297.378 406.706 297.378Z" fill="#E6E6E6"/>
<path d="M359.738 294.908C359.748 294.911 359.758 294.916 359.766 294.922C359.434 294.205 359.125 293.48 358.843 292.744C358.809 292.658 358.779 292.569 358.746 292.482C358.748 292.505 358.748 292.527 358.751 292.552C358.759 292.692 358.771 292.831 358.782 292.973C358.799 293.193 358.812 293.417 358.815 293.639C358.818 293.709 358.818 293.776 358.818 293.843C358.817 294.115 358.789 294.385 358.734 294.651H358.746C358.815 294.657 358.88 294.66 358.946 294.671C359.209 294.706 359.466 294.779 359.708 294.888C359.719 294.894 359.729 294.9 359.738 294.908Z" fill="url(#paint0_linear_125_406)"/>
<path d="M354.458 185.408C354.427 186.572 354.033 187.701 353.971 188.862C357.401 189.033 360.783 187.369 364.179 187.879C363.23 187.267 362.723 186.158 362.424 185.069C362.044 183.663 361.93 182.199 362.089 180.751C362.098 180.671 362.113 180.591 362.132 180.512C362.258 179.943 362.584 179.136 362.496 178.689C362.381 178.096 361.823 178.214 361.319 178.248C359.784 178.365 358.256 178.562 356.742 178.838C356.347 178.907 352.504 179.866 352.446 179.766C353.12 180.846 353.678 181.995 354.11 183.192C354.35 183.906 354.467 184.655 354.458 185.408Z" fill="#ED9DA0"/>
<path d="M320.54 181.811C320.834 182.213 321.187 182.569 321.587 182.867C321.847 183.08 322.114 183.297 322.393 183.493C322.891 183.877 323.484 184.118 324.108 184.191C324.924 184.246 326.657 183.766 327.167 183.069C327.381 182.717 327.483 182.309 327.459 181.897C327.451 181.34 327.356 180.788 327.178 180.26C326.859 179.401 326.414 178.594 325.855 177.868C325.308 177.014 324.582 176.289 323.729 175.742C323.436 175.585 322.25 176.518 322.56 177.326C322.301 177.334 322.051 177.423 321.846 177.582C321.642 177.74 321.493 177.96 321.421 178.209C321.409 178.341 321.355 178.466 321.268 178.565C321.127 178.678 320.907 178.616 320.747 178.7C320.464 178.853 320.587 179.273 320.558 179.593C320.488 179.87 320.39 180.14 320.265 180.397C320.205 180.639 320.199 180.891 320.246 181.135C320.294 181.38 320.394 181.611 320.541 181.813L320.54 181.811Z" fill="#ED9DA0"/>
<path d="M367.817 298.529C367.664 298.422 367.488 298.353 367.304 298.325C367.119 298.297 366.931 298.312 366.753 298.369C364.774 298.681 362.774 298.843 360.771 298.852C360.52 297.629 361.248 296.437 361.484 295.21C361.518 294.893 361.598 294.583 361.721 294.289C361.893 294.036 362.117 293.823 362.379 293.666C362.64 293.508 362.933 293.408 363.237 293.375C364.315 293.147 366 292.746 366.602 293.833C367.323 295.143 367.554 297.074 367.817 298.529Z" fill="#ED9DA0"/>
<path d="M345.898 293.904C346.751 294.403 347.709 294.695 348.696 294.757C349.682 294.815 350.651 295.036 351.565 295.411C352.33 295.788 352.972 296.407 353.781 296.677C354.533 296.884 355.325 296.896 356.082 296.714C356.991 296.543 357.96 296.213 358.45 295.428C358.887 294.731 358.841 293.848 358.78 293.025C358.71 292.097 358.641 291.169 358.573 290.238C358.577 290.002 358.517 289.77 358.401 289.565C357.743 288.607 356.146 289.966 355.291 289.963C353.876 289.882 352.535 289.305 351.505 288.332C351.419 288.243 351.32 288.168 351.21 288.111C350.825 287.938 350.439 288.258 350.095 288.537C350.057 288.569 350.018 288.601 349.98 288.631C349.189 289.258 348.126 289.386 347.149 289.639C346.172 289.893 345.123 290.404 344.82 291.369C344.801 291.429 344.785 291.491 344.773 291.554C344.72 292.012 344.797 292.476 344.996 292.891C345.195 293.307 345.507 293.658 345.898 293.904Z" fill="#090814"/>
<path d="M367.446 233.476C368.079 236.581 367.479 239.811 365.772 242.482C365.264 243.173 364.809 243.902 364.412 244.662C364.183 245.22 364.005 245.799 363.881 246.39L362.374 252.627C361.966 254.309 361.558 256.027 361.679 257.755C361.764 258.959 362.068 260.313 361.326 261.265C361.146 261.447 360.995 261.654 360.877 261.88C360.803 262.145 360.8 262.425 360.869 262.691C361.634 267.219 362.197 271.953 360.818 276.334C359.57 280.305 359.498 284.704 358.437 288.729C358.35 289.24 358.122 289.717 357.777 290.105C357.493 290.344 357.153 290.505 356.789 290.575C355.224 290.947 353.572 290.511 352.113 289.835C351.087 289.36 349.983 288.526 350.074 287.4C350.18 286.873 350.371 286.366 350.641 285.901C350.981 284.902 351.17 283.858 351.202 282.803C351.484 280.171 352.296 277.63 352.909 275.056C353.523 272.483 353.94 269.791 353.419 267.195C352.358 261.827 350.659 256.604 348.36 251.637C348.26 251.373 348.101 251.135 347.896 250.941C347.666 250.81 347.446 250.66 347.241 250.493C347.081 250.247 346.979 249.968 346.94 249.678C346.712 248.856 346.034 248.251 345.58 247.529C344.433 245.707 344.796 243.372 344.839 241.219C344.88 239.126 344.579 237.013 344.922 234.95C345.265 232.887 346.449 230.774 348.44 230.127C349.447 229.867 350.498 229.818 351.525 229.981C356.999 230.517 362.313 231.51 367.446 233.476Z" fill="#090814"/>
<path d="M345.168 246.601C345.184 247.414 345.277 248.225 345.443 249.021C346.408 254.426 347.435 259.819 348.525 265.201C348.621 265.668 348.715 266.135 348.841 266.593C349.248 268.091 349.959 269.489 350.931 270.7C355.476 276.363 355.869 284.586 358.334 291.416C358.501 291.878 358.667 292.341 358.844 292.797C359.29 293.954 359.797 295.087 360.365 296.189C360.431 296.35 360.54 296.49 360.679 296.594C360.832 296.671 361.003 296.704 361.174 296.69C363.392 296.703 365.584 296.205 367.579 295.234C367.863 295.129 368.104 294.93 368.259 294.669C368.336 294.461 368.36 294.238 368.332 294.019C368.263 292.665 368.179 291.262 367.534 290.072C367.104 289.36 366.572 288.716 365.953 288.159C365.81 283.904 365.293 279.668 364.407 275.503C363.927 273.382 363.336 271.237 362.101 269.444C361.193 268.119 359.889 266.813 360.049 265.214C360.12 264.513 360.414 263.638 359.842 263.226C359.593 263.045 359.224 263.022 359.055 262.764C358.987 262.642 358.949 262.506 358.944 262.367C358.827 261.271 358.896 260.163 359.148 259.09C359.356 258.389 359.519 257.675 359.636 256.954C359.692 256.591 359.673 256.221 359.581 255.866C359.488 255.511 359.325 255.179 359.099 254.89C359.069 253.431 359.11 251.918 359.08 250.462C359.022 249.632 359.091 248.798 359.284 247.988C359.394 247.607 359.563 247.242 359.648 246.852C359.954 245.451 359.189 243.773 360.098 242.662C360.531 242.252 361.021 241.908 361.553 241.639C362.522 240.933 363.225 239.923 363.549 238.769C363.869 237.623 364.059 236.444 364.115 235.255C364.144 235.003 364.147 234.749 364.123 234.496C364.108 234.366 364.073 234.238 364.021 234.117C363.74 233.483 362.983 233.238 362.309 233.076C358.025 232.049 353.635 231.536 349.23 231.547C347.598 230.438 346.681 230.834 345.992 232.01C345.61 232.727 345.302 233.481 345.071 234.259C344.755 235.212 344.736 240.547 344.429 241.504C344.029 242.753 345.185 245.294 345.168 246.601Z" fill="#090814"/>
<path d="M355.998 183.206C360.372 183.206 363.918 179.661 363.918 175.289C363.918 170.916 360.372 167.372 355.998 167.372C351.624 167.372 348.078 170.916 348.078 175.289C348.078 179.661 351.624 183.206 355.998 183.206Z" fill="#ED9DA0"/>
<path d="M351.391 188.25C351.736 188.649 352.2 189.089 352.712 188.961C352.897 188.897 353.071 188.804 353.226 188.686C354.139 188.097 355.26 187.959 356.336 187.798C358.5 187.472 360.637 186.992 362.732 186.362C363.341 186.14 363.979 186.011 364.625 185.977C365.968 185.984 367.158 186.876 367.999 187.922C368.84 188.967 369.436 190.191 370.261 191.249C370.85 192.003 371.55 192.667 372.097 193.45C373.484 195.426 367.865 218.925 367.942 219.322C368.468 223.061 368.745 233.469 368.513 235.387C366.035 234.43 363.439 233.813 360.796 233.552C359.094 233.386 357.36 233.364 355.718 232.887C354.692 232.589 353.72 232.116 352.678 231.879C351.834 231.713 350.976 231.626 350.115 231.617C348.219 231.482 346.315 231.524 344.427 231.745C344.274 231.767 344.089 231.779 343.999 231.656C343.958 231.588 343.938 231.51 343.942 231.432C343.913 230.728 344.081 230.03 344.428 229.416C344.728 229.033 344.921 228.577 344.988 228.095C344.971 227.869 345.46 198.281 346.161 197.019C347.055 195.592 347.721 194.035 348.138 192.404C348.357 191.314 348.349 190.19 348.505 189.089C348.522 188.809 348.619 188.541 348.785 188.315C348.938 188.181 349.117 188.082 349.312 188.024C349.507 187.967 349.711 187.952 349.912 187.98C350.416 187.995 350.915 188.086 351.391 188.25Z" fill="#FFA83F"/>
<path d="M348.744 200.616C348.303 201.25 347.735 201.786 347.076 202.189C346.255 202.536 345.362 202.673 344.475 202.588C340.826 202.51 337.19 202.111 333.611 201.395C333.203 201.324 328.832 198.611 327.936 197.471C326.87 196.095 324.188 187.246 324.094 186.742C323.93 185.873 323.489 185.081 322.837 184.483C322.699 184.384 322.595 184.246 322.539 184.086C322.521 183.952 322.546 183.817 322.61 183.699C322.817 183.303 323.109 182.959 323.466 182.691C323.823 182.423 324.236 182.238 324.673 182.151C325.549 181.982 326.445 181.946 327.332 182.045C327.627 182.101 327.919 182.178 328.203 182.276C328.905 184.179 333.801 192.991 334.058 192.979C334.758 193.022 336.269 193.278 336.903 192.979C337.624 192.641 339.987 192.628 340.113 192.559C340.398 192.392 342.968 191.28 343.302 191.316C343.091 191.128 347.956 189.905 348.291 189.321C348.41 189.114 348.433 188.833 348.636 188.707C348.773 188.639 348.929 188.621 349.078 188.656C349.542 188.718 349.994 188.856 350.414 189.063C351.1 191.745 350.74 194.53 350.217 197.248C350.026 198.481 349.519 199.643 348.745 200.622L348.744 200.616Z" fill="#FFA83F"/>
<path d="M352.727 186.263C353.605 185.778 354.566 185.461 355.561 185.331C356.153 185.196 356.761 185.153 357.365 185.201C357.923 185.271 358.458 185.486 359.019 185.517C359.808 185.48 360.585 185.317 361.322 185.034C362.083 184.826 362.961 184.746 363.602 185.206C363.738 185.34 363.911 185.432 364.098 185.469C364.292 185.446 364.473 185.357 364.611 185.218C365.15 184.833 365.804 184.642 366.465 184.676C367.127 184.711 367.757 184.97 368.253 185.41C369.705 186.771 369.54 189.43 371.242 190.463C371.711 190.747 372.313 190.898 372.585 191.373C372.651 191.524 372.729 191.671 372.817 191.811C372.93 191.936 373.069 192.035 373.224 192.102C373.718 192.323 374.188 192.593 374.627 192.908C374.846 193.068 375.031 193.27 375.17 193.502C375.309 193.735 375.399 193.993 375.435 194.262C375.441 194.655 375.357 195.044 375.187 195.4C374.354 197.441 372.91 199.175 371.051 200.363C369.193 201.551 367.012 202.134 364.809 202.033C364.417 202.054 364.032 201.933 363.721 201.694C363.558 201.509 363.429 201.297 363.34 201.067C362.54 199.39 361.037 198.152 360.084 196.557C359.515 195.607 359.15 194.544 358.558 193.609C357.66 192.19 356.296 191.142 354.96 190.125C354.206 189.551 353.368 188.95 352.421 188.989C351.578 189.025 350.964 189.07 351.274 188.036C351.532 187.291 352.047 186.663 352.727 186.263Z" fill="#FFA83F"/>
<path opacity="0.05" d="M352.727 186.263C353.605 185.778 354.566 185.461 355.561 185.331C356.153 185.196 356.761 185.153 357.365 185.201C357.923 185.271 358.458 185.486 359.019 185.517C359.808 185.48 360.585 185.317 361.322 185.034C362.083 184.826 362.961 184.746 363.602 185.206C363.738 185.34 363.911 185.432 364.098 185.469C364.292 185.446 364.473 185.357 364.611 185.218C365.15 184.833 365.804 184.642 366.465 184.676C367.127 184.711 367.757 184.97 368.253 185.41C369.705 186.771 369.54 189.43 371.242 190.463C371.711 190.747 372.313 190.898 372.585 191.373C372.651 191.524 372.729 191.671 372.817 191.811C372.93 191.936 373.069 192.035 373.224 192.102C373.718 192.323 374.188 192.593 374.627 192.908C374.846 193.068 375.031 193.27 375.17 193.502C375.309 193.735 375.399 193.993 375.435 194.262C375.441 194.655 375.357 195.044 375.187 195.4C374.354 197.441 372.91 199.175 371.051 200.363C369.193 201.551 367.012 202.134 364.809 202.033C364.417 202.054 364.032 201.933 363.721 201.694C363.558 201.509 363.429 201.297 363.34 201.067C362.54 199.39 361.037 198.152 360.084 196.557C359.515 195.607 359.15 194.544 358.558 193.609C357.66 192.19 356.296 191.142 354.96 190.125C354.206 189.551 353.368 188.95 352.421 188.989C351.578 189.025 350.964 189.07 351.274 188.036C351.532 187.291 352.047 186.663 352.727 186.263Z" fill="black"/>
<path d="M348.605 301.012C349.218 301.509 349.953 301.832 350.733 301.949C352.482 302.289 354.252 302.508 356.031 302.603C356.607 302.646 357.185 302.691 357.761 302.735C359.45 302.863 361.142 302.993 362.838 302.999C364.93 303.007 367.02 302.826 369.08 302.46C369.163 302.468 369.246 302.457 369.323 302.427C369.4 302.396 369.47 302.349 369.525 302.287C369.58 302.226 369.62 302.152 369.642 302.072C369.664 301.992 369.667 301.908 369.65 301.827C369.613 299.718 368.203 298.079 367.729 296.024C367.533 295.179 367.171 296.612 367.103 296.691C366.946 296.912 366.74 297.093 366.501 297.22C366.262 297.347 365.997 297.416 365.726 297.422C363.984 297.518 362.032 296.458 360.648 295.516C360.351 295.296 360.037 295.101 359.707 294.934C359.465 294.825 359.209 294.752 358.946 294.716C358.049 294.634 357.148 294.816 356.354 295.241C355.313 295.757 354.4 296.499 353.37 297.03C352.532 297.46 351.628 297.746 350.696 297.876C349.753 298.006 348.627 298.068 348.142 298.885C348.142 298.886 348.142 298.887 348.142 298.888C348.142 298.889 348.142 298.89 348.142 298.891C347.977 299.247 347.932 299.647 348.016 300.03C348.099 300.413 348.306 300.758 348.605 301.012Z" fill="#090814"/>
<path opacity="0.1" d="M364.979 176.388C364.813 176.492 364.626 176.562 364.432 176.592C364.188 176.663 363.93 176.681 363.678 176.643C363.427 176.605 363.186 176.513 362.973 176.374L364.979 176.388Z" fill="black"/>
<path d="M349.501 165.374C350.535 164.876 351.7 164.718 352.829 164.923C353.946 165.077 355.108 165.422 356.173 165.073C357.387 164.666 358.32 163.392 359.591 163.496C360.13 163.577 360.635 163.808 361.05 164.162C362.694 165.389 363.935 167.078 364.617 169.012C364.75 169.545 364.984 170.047 365.306 170.492C365.522 170.693 365.727 170.905 365.921 171.128C366.111 171.434 366.221 171.783 366.241 172.143C366.461 174.126 365.952 176.121 364.808 177.756C364.131 178.721 363.248 179.521 362.548 180.487C361.848 181.453 359.681 182.981 359.533 182.352C359.322 181.735 359.197 181.092 359.162 180.441C359.227 179.157 359.971 178.112 359.359 176.982C358.981 176.283 358.091 175.583 357.478 176.085C357.237 176.278 357.132 176.595 356.91 176.806C356.669 176.985 356.367 177.062 356.07 177.02C355.772 176.978 355.503 176.821 355.32 176.583C354.969 176.089 354.817 175.481 354.895 174.879C355.064 172.141 354.384 170.131 351.353 170.228C350.223 170.264 348.965 170.109 348.263 169.086C347.339 167.74 348.236 166.065 349.501 165.374Z" fill="#090814"/>
<defs>
<linearGradient id="paint0_linear_125_406" x1="208.497" y1="294.922" x2="208.497" y2="292.482" gradientUnits="userSpaceOnUse">
<stop stop-color="#808080" stop-opacity="0.251"/>
<stop offset="0.535" stop-color="#808080" stop-opacity="0.122"/>
<stop offset="1" stop-color="#808080" stop-opacity="0.102"/>
</linearGradient>
</defs>
</svg>
