<svg width="126" height="129" viewBox="0 0 126 129" fill="none" xmlns="http://www.w3.org/2000/svg">
<path fill-rule="evenodd" clip-rule="evenodd" d="M3.02527 7.92317C3.81873 3.24804 7.90019 7.99679e-07 12.5696 7.99679e-07H13.403C13.5961 -0.000203573 13.7872 0.0387674 13.9647 0.114555C14.1423 0.190342 14.3026 0.30137 14.4361 0.44092C14.5695 0.580469 14.6732 0.745637 14.7409 0.926428C14.8086 1.10722 14.839 1.29987 14.8301 1.49273L13.56 29.3779C13.5388 29.8461 13.6101 30.3138 13.7696 30.7544C13.9292 31.195 14.174 31.5999 14.4901 31.9459C14.8061 32.2919 15.1873 32.5723 15.6117 32.771C16.0361 32.9697 16.4954 33.0829 16.9636 33.1041C17.4317 33.1252 17.8995 33.054 18.3401 32.8944C18.7807 32.7348 19.1856 32.49 19.5316 32.174C19.8776 31.8579 20.1579 31.4768 20.3566 31.0524C20.5554 30.628 20.6685 30.1686 20.6897 29.7005L21.9769 1.36429C21.9931 0.996794 22.1506 0.649741 22.4165 0.395544C22.6824 0.141348 23.0362 -0.000355448 23.404 7.99679e-07H30.8249C31.1927 -0.000355448 31.5465 0.141348 31.8124 0.395544C32.0783 0.649741 32.2358 0.996794 32.2519 1.36429L33.5392 29.7005C33.5823 30.6459 33.9993 31.5355 34.6983 32.1735C35.3974 32.8116 36.3213 33.1458 37.2667 33.1026C38.2122 33.0595 39.1018 32.6425 39.7398 31.9435C40.3778 31.2444 40.712 30.3205 40.6689 29.3751L39.4016 1.49273C39.3927 1.29987 39.4231 1.10722 39.4908 0.926428C39.5585 0.745637 39.6623 0.580469 39.7957 0.44092C39.9291 0.30137 40.0894 0.190342 40.267 0.114555C40.4445 0.0387674 40.6356 -0.000203573 40.8287 7.99679e-07H41.6564C46.3258 7.99679e-07 50.4073 3.24519 51.2007 7.92031C52.5222 15.7236 54.3717 29.3665 54.2233 43.957C54.1405 52.0629 48.7148 59.3495 40.2008 61.2561C38.9564 61.5377 37.6549 61.7908 36.2963 62.0153L41.5537 112.089C42.3414 119.59 37.672 127.127 29.8973 128.209C28.9761 128.35 28.0462 128.426 27.1144 128.438C26.1836 128.426 25.2547 128.35 24.3345 128.209C16.5597 127.125 11.8903 119.59 12.6781 112.089L17.9354 62.0182C16.6278 61.8029 15.3267 61.5497 14.0338 61.259C5.51696 59.3524 0.0911862 52.0657 0.00841541 43.9599C-0.140001 29.3694 1.70664 15.7265 3.02527 7.92317ZM121.302 2.42319C87.4116 2.42319 59.9374 29.8974 59.9374 63.7878C59.9374 97.6781 87.4116 125.152 121.302 125.152C122.437 125.152 123.526 124.701 124.329 123.898C125.132 123.096 125.583 122.007 125.583 120.871V102.085C124.161 102.24 122.732 102.318 121.302 102.319C100.021 102.319 82.7707 85.0684 82.7707 63.7878C82.7707 42.5071 100.021 25.2565 121.302 25.2565C122.75 25.2565 124.177 25.3345 125.583 25.4906V6.70444C125.583 5.56898 125.132 4.48003 124.329 3.67714C123.526 2.87425 122.437 2.42319 121.302 2.42319ZM121.302 93.7565C122.758 93.7565 124.185 93.6557 125.583 93.454V34.1216C124.165 33.9232 122.734 33.8221 121.302 33.819C104.751 33.819 91.3332 47.2365 91.3332 63.7878C91.3332 80.3391 104.751 93.7565 121.302 93.7565Z" fill="url(#paint0_linear_275_24)"/>
<defs>
<linearGradient id="paint0_linear_275_24" x1="0" y1="64.2188" x2="125.583" y2="64.2188" gradientUnits="userSpaceOnUse">
<stop stop-color="#FFA83F"/>
<stop offset="1" stop-color="#FF5E25"/>
</linearGradient>
</defs>
</svg>
