<svg width="76" height="85" viewBox="0 0 76 85" fill="none" xmlns="http://www.w3.org/2000/svg">
<path opacity="0.4" d="M38 0C27.9218 0 18.2563 3.99389 11.1299 11.1031C4.00356 18.2122 0 27.8543 0 37.9082V84.2405L12.6667 71.6044L25.3333 84.2405L38 71.6044L50.6667 84.2405L63.3333 71.6044L76 84.2405V37.9082C76 27.8543 71.9964 18.2122 64.8701 11.1031C57.7437 3.99389 48.0782 0 38 0ZM67.5556 63.8964L63.3333 59.6844L57.38 65.6654L50.6667 72.3204L43.9533 65.6654L38 59.6844L32.0467 65.6654L25.3333 72.3204L18.62 65.6654L12.6667 59.6844L8.44444 63.8964V37.9082C8.44444 21.6498 21.7022 8.42405 38 8.42405C54.2978 8.42405 67.5556 21.6498 67.5556 37.9082V63.8964ZM33.7778 33.6962C33.7778 38.3715 30.02 42.1202 25.3333 42.1202C20.6467 42.1202 16.8889 38.3715 16.8889 33.6962C16.8889 29.0208 20.6889 25.2721 25.3333 25.2721C29.9778 25.2721 33.7778 29.063 33.7778 33.6962ZM59.1111 33.6962C59.1111 38.3715 55.3533 42.1202 50.6667 42.1202C45.98 42.1202 42.2222 38.3715 42.2222 33.6962C42.2222 29.0208 46.0222 25.2721 50.6667 25.2721C55.3111 25.2721 59.1111 29.063 59.1111 33.6962Z" fill="#FFFEFE"/>
</svg>
